custom-analysis
version=1
nRows=4
nColumns=98
inDegrees=no

This file contains tibia displacement and acting force.

Units are S.I. units (seconds, meters, Newtons, ...)
Angles are in degrees.

endheader
time	APT	SIT	knee_angle	aACL_R_force	pACL_R_force	aPCL_R_force	pPCL_R_force	aMCL_R_force	mMCL_R_force	pMCL_R_force	aLCL_R_force	mLCL_R_force	pLCL_R_force	aPCL_L_force	pPCL_L_force	aMCL_L_force	aLCL_L_force	aACL_R_length	pACL_R_length	aPCL_R_length	pPCL_R_length	aMCL_R_length	mMCL_R_length	pMCL_R_length	aLCL_R_length	mLCL_R_length	pLCL_R_length	aPCL_L_length	pPCL_L_length	aMCL_L_length	aLCL_L_length	aACL_R_strain	pACL_R_strain	aPCL_R_strain	pPCL_R_strain	aMCL_R_strain	mMCL_R_strain	pMCL_R_strain	aLCL_R_strain	mLCL_R_strain	pLCL_R_strain	aPCL_L_strain	pPCL_L_strain	aMCL_L_strain	aLCL_L_strain	femur_lat_meniscii_r.femur_lat_r.force.X	femur_lat_meniscii_r.femur_lat_r.force.Y	femur_lat_meniscii_r.femur_lat_r.force.Z	femur_lat_meniscii_r.femur_lat_r.torque.X	femur_lat_meniscii_r.femur_lat_r.torque.Y	femur_lat_meniscii_r.femur_lat_r.torque.Z	femur_lat_meniscii_r.meniscus_lat_r.force.X	femur_lat_meniscii_r.meniscus_lat_r.force.Y	femur_lat_meniscii_r.meniscus_lat_r.force.Z	femur_lat_meniscii_r.meniscus_lat_r.torque.X	femur_lat_meniscii_r.meniscus_lat_r.torque.Y	femur_lat_meniscii_r.meniscus_lat_r.torque.Z	femur_med_meniscii_r.femur_med_r.force.X	femur_med_meniscii_r.femur_med_r.force.Y	femur_med_meniscii_r.femur_med_r.force.Z	femur_med_meniscii_r.femur_med_r.torque.X	femur_med_meniscii_r.femur_med_r.torque.Y	femur_med_meniscii_r.femur_med_r.torque.Z	femur_med_meniscii_r.meniscus_med_r.force.X	femur_med_meniscii_r.meniscus_med_r.force.Y	femur_med_meniscii_r.meniscus_med_r.force.Z	femur_med_meniscii_r.meniscus_med_r.torque.X	femur_med_meniscii_r.meniscus_med_r.torque.Y	femur_med_meniscii_r.meniscus_med_r.torque.Z	femur_med_tibia_r.tibia_upper_r.force.X	femur_med_tibia_r.tibia_upper_r.force.Y	femur_med_tibia_r.tibia_upper_r.force.Z	femur_med_tibia_r.tibia_upper_r.torque.X	femur_med_tibia_r.tibia_upper_r.torque.Y	femur_med_tibia_r.tibia_upper_r.torque.Z	femur_med_tibia_r.femur_med_r.force.X	femur_med_tibia_r.femur_med_r.force.Y	femur_med_tibia_r.femur_med_r.force.Z	femur_med_tibia_r.femur_med_r.torque.X	femur_med_tibia_r.femur_med_r.torque.Y	femur_med_tibia_r.femur_med_r.torque.Z	femur_lat_tibia_r.tibia_upper_r.force.X	femur_lat_tibia_r.tibia_upper_r.force.Y	femur_lat_tibia_r.tibia_upper_r.force.Z	femur_lat_tibia_r.tibia_upper_r.torque.X	femur_lat_tibia_r.tibia_upper_r.torque.Y	femur_lat_tibia_r.tibia_upper_r.torque.Z	femur_lat_tibia_r.femur_lat_r.force.X	femur_lat_tibia_r.femur_lat_r.force.Y	femur_lat_tibia_r.femur_lat_r.force.Z	femur_lat_tibia_r.femur_lat_r.torque.X	femur_lat_tibia_r.femur_lat_r.torque.Y	femur_lat_tibia_r.femur_lat_r.torque.Z	femur_lat_meniscii_force_r	femur_med_meniscii_force_r	femur_lat_tibia_force_r	femur_med_tibia_force_r
      0.10760850	      0.00817752	      0.00744172	     27.91682115	      8.04813903	    -11.87031017	      0.00000000	     57.58553286	      0.00000000	      0.00000000	    -38.28302901	      0.00000000	      0.00000000	      0.00000000	      0.00000000	      0.00000000	      0.00000001	      0.00000000	      0.03240928	      0.02537675	      0.03101279	      0.03015476	      0.05722042	      0.05951088	      0.05884998	      0.05351590	      0.05045453	      0.04691518	      0.01525851	      0.01651186	      0.06550154	      0.04489616	      0.04527520	      0.01269236	     -0.00265346	      0.00893209	     -0.04675535	     -0.00472664	      0.00207702	     -0.04396962	     -0.10412317	     -0.10369209	      0.00000079	     -0.32847694	      0.00000060	     -0.00000086	     61.38225946	    287.67746817	     44.08842447	    -25.09188339	      1.60051548	     24.16161372	    -61.38225946	   -287.67746817	    -44.08842447	      8.87301626	     -2.16902258	      2.12867465	    -33.55781113	     66.86604776	      7.97294463	     -1.67486322	      0.79807116	    -13.74194256	     33.55781113	    -66.86604776	     -7.97294463	     -1.22544104	     -0.80245153	      1.57141217	    -92.16021040	   -494.23905545	    109.57846562	    -11.64164162	      2.28002349	      0.52618672	     92.16021040	    494.23905545	   -109.57846562	     54.61762946	     -1.40641708	     39.55875576	    -34.04571420	   -124.01704453	    -31.18890125	      4.23616671	     -1.19424204	      0.12209879	     34.04571420	    124.01704453	     31.18890125	    -15.88487021	      0.81273803	     14.11057409	    297.43889564	     75.23804142	    132.33323676	    514.56116103
      0.10853044	      0.00824632	      0.00756693	     28.33461773	      7.21667563	    -12.48314074	      0.00000000	     59.79370799	      0.00000000	      0.00000000	    -38.69876314	      0.00000000	      0.00000000	      0.00000000	      0.00000000	      0.00000000	      0.00000001	      0.00000000	      0.03239149	      0.02534644	      0.03108174	      0.03020171	      0.05725392	      0.05950444	      0.05880112	      0.05350836	      0.05042113	      0.04685613	      0.01525851	      0.01651186	      0.06550154	      0.04489616	      0.04470149	      0.01148264	     -0.00043622	      0.01050282	     -0.04619724	     -0.00483429	      0.00124504	     -0.04410430	     -0.10471623	     -0.10482020	      0.00000079	     -0.32847694	      0.00000060	     -0.00000086	     61.20132967	    289.86088794	     43.93348035	    -25.07883387	      1.59340106	     24.05459368	    -61.20132967	   -289.86088794	    -43.93348035	      8.91239961	     -2.16381166	      2.22939263	    -33.23607954	     68.36067048	      8.93283390	     -2.04002191	      0.78865154	    -13.60731595	     33.23607954	    -68.36067048	     -8.93283390	     -1.22664212	     -0.80576173	      1.58409439	    -96.99340631	   -498.25330774	    109.85690626	    -11.71875476	      2.38205218	      0.48049951	     96.99340631	    498.25330774	   -109.85690626	     54.79055899	     -1.49688554	     41.56253968	    -32.24750676	   -116.02329478	    -29.13222849	      3.95019366	     -1.13137511	      0.13323814	     32.24750676	    116.02329478	     29.13222849	    -14.83502334	      0.77117688	     13.35011085	    299.49138185	     76.53504931	    123.89509014	    519.35789144
      0.10945239	      0.00831787	      0.00769458	     28.75509672	      6.83417124	    -12.66287237	     26.02148930	     59.53389753	      0.00000000	      0.00000000	    -40.23629856	      0.00000000	      0.00000000	      0.00000000	      0.00000000	      0.00000000	      0.00000001	      0.00000000	      0.03237305	      0.02531560	      0.03114930	      0.03024667	      0.05728694	      0.05949704	      0.05875130	      0.05349990	      0.05038648	      0.04679570	      0.01525851	      0.01651186	      0.06550154	      0.04489616	      0.04410679	      0.01025176	      0.00173651	      0.01200712	     -0.04564711	     -0.00495809	      0.00039674	     -0.04425554	     -0.10533137	     -0.10597465	      0.00000079	     -0.32847694	      0.00000060	     -0.00000086	     65.24788555	    294.56703639	     40.72899830	    -23.83505003	      1.69329955	     25.69549253	    -65.24788555	   -294.56703639	    -40.72899830	      8.89236315	     -2.24400493	      2.22560597	    -31.28368630	     68.66392303	      9.92276636	     -2.43763135	      0.74109255	    -12.79827137	     31.28368630	    -68.66392303	     -9.92276636	     -1.20943520	     -0.77493792	      1.53430263	   -104.18299951	   -504.01062316	    110.41754278	    -11.82962810	      2.51884402	      0.36164982	    104.18299951	    504.01062316	   -110.41754278	     55.10950342	     -1.62353048	     44.56123691	    -31.15628531	   -110.50142199	    -27.45201726	      3.74324605	     -1.09035614	      0.14112130	     31.15628531	    110.50142199	     27.45201726	    -14.00207348	      0.74643576	     12.88636013	    304.44355273	     76.10430111	    118.04614195	    526.37708860
      0.11042452	      0.00839834	      0.00783442	     29.20162557	      6.13397669	    -13.10414165	     25.02490391	     58.25939638	      0.00000000	      0.00000000	      0.00000000	      0.00000000	      0.00000000	      0.00000000	      0.00000000	      0.00000000	      0.00000001	      0.00000000	      0.03235266	      0.02528222	      0.03121555	      0.03028844	      0.05731845	      0.05948535	      0.05869491	      0.05348705	      0.05034573	      0.04672757	      0.01525851	      0.01651186	      0.06550154	      0.04489616	      0.04344918	      0.00891992	      0.00386724	      0.01340489	     -0.04512214	     -0.00515359	     -0.00056350	     -0.04448509	     -0.10605499	     -0.10727631	      0.00000079	     -0.32847694	      0.00000060	     -0.00000086	     69.33292915	    304.13736356	     39.52610959	    -23.56389116	      1.77233261	     27.32441332	    -69.33292915	   -304.13736356	    -39.52610959	      9.08997281	     -2.32340165	      2.30460534	    -29.94592744	     70.90999812	     10.58777234	     -2.64861676	      0.70609116	    -12.23786551	     29.94592744	    -70.90999812	    -10.58777234	     -1.25054287	     -0.75232362	      1.51931171	   -116.32090542	   -527.54302741	    115.51711587	    -12.39134155	      2.77342394	      0.22061393	    116.32090542	    527.54302741	   -115.51711587	     57.65177449	     -1.82936080	     49.66609265	    -31.93436237	   -109.26708603	    -26.99493473	      3.68791161	     -1.10891772	      0.12633911	     31.93436237	    109.26708603	     26.99493473	    -13.77879872	      0.76477299	     13.20392971	    314.43426073	     77.69869578	    116.99498318	    552.42773542
